<?xml version="1.0" encoding="UTF-8"?>
<svg width="25px" height="25px" viewBox="0 0 25 25" version="1.1" xmlns="http://www.w3.org/2000/svg" xmlns:xlink="http://www.w3.org/1999/xlink">
    <!-- Generator: Sketch 49 (51002) - http://www.bohemiancoding.com/sketch -->
    <title>icon facebook</title>
    <desc>Created with Sketch.</desc>
    <defs></defs>
    <g id="HOME" stroke="none" stroke-width="1" fill="none" fill-rule="evenodd">
        <g id="Nava-Homepage" transform="translate(-460.000000, -1629.000000)">
            <g id="Footer" transform="translate(0.000000, 1590.000000)">
                <g id="icon-facebook" transform="translate(460.000000, 39.000000)">
                    <rect id="Rectangle-5-Copy-5" fill="#676767" x="0" y="0" width="25" height="25" rx="4"></rect>
                    <path d="M17.426605,2.87290294 L14.8707781,2.86885246 C11.9993942,2.86885246 10.1437798,4.74928767 10.1437798,7.65975987 L10.1437798,9.86868899 L7.57401007,9.86868899 C7.35195146,9.86868899 7.17213115,10.046505 7.17213115,10.2658385 L7.17213115,13.4663251 C7.17213115,13.6856586 7.3521565,13.8632721 7.57401007,13.8632721 L10.1437798,13.8632721 L10.1437798,21.9391186 C10.1437798,22.158452 10.3236001,22.3360656 10.5456587,22.3360656 L13.8984772,22.3360656 C14.1205358,22.3360656 14.3003561,22.1582495 14.3003561,21.9391186 L14.3003561,13.8632721 L17.3050162,13.8632721 C17.5270748,13.8632721 17.7068951,13.6856586 17.7068951,13.4663251 L17.7081253,10.2658385 C17.7081253,10.1605261 17.665682,10.0596691 17.5904322,9.98514028 C17.5151824,9.91061146 17.4126623,9.86868899 17.3060414,9.86868899 L14.3003561,9.86868899 L14.3003561,7.99615221 C14.3003561,7.09613562 14.5174937,6.63924151 15.7044718,6.63924151 L17.426195,6.63863394 C17.6480485,6.63863394 17.8278689,6.46081788 17.8278689,6.24168692 L17.8278689,3.26984995 C17.8278689,3.05092152 17.6482536,2.87330799 17.426605,2.87290294 Z" id="Shape" fill="#F7F7F7" fill-rule="nonzero"></path>
                </g>
            </g>
        </g>
    </g>
</svg>