<?xml version="1.0" encoding="UTF-8"?>
<svg width="25px" height="25px" viewBox="0 0 25 25" version="1.1" xmlns="http://www.w3.org/2000/svg" xmlns:xlink="http://www.w3.org/1999/xlink">
    <!-- Generator: Sketch 49 (51002) - http://www.bohemiancoding.com/sketch -->
    <title>icon instagram</title>
    <desc>Created with Sketch.</desc>
    <defs></defs>
    <g id="HOME" stroke="none" stroke-width="1" fill="none" fill-rule="evenodd">
        <g id="Nava-Homepage" transform="translate(-500.000000, -1629.000000)">
            <g id="Footer" transform="translate(0.000000, 1590.000000)">
                <g id="icon-instagram" transform="translate(500.000000, 39.000000)">
                    <rect id="Rectangle-5-Copy" fill="#676767" x="0" y="0" width="25" height="25" rx="4"></rect>
                    <path d="M21.4564226,2.86885246 L3.74729469,2.86885246 C3.2630468,2.86885246 2.86885246,3.26184609 2.86885246,3.74609397 L2.86885246,21.4588241 C2.86885246,21.9418712 3.2630468,22.3360656 3.74729469,22.3360656 L21.4563826,22.3360656 C21.9418312,22.3360656 22.3360656,21.9418712 22.3360656,21.4588241 L22.3360656,3.74609397 C22.3361056,3.26184609 21.9418712,2.86885246 21.4564226,2.86885246 Z M12.602479,9.2054195 C14.4786344,9.2054195 15.9994985,10.7262836 15.9994985,12.602439 C15.9994985,14.4785944 14.4786344,15.9994585 12.602479,15.9994585 C10.7263237,15.9994585 9.20545953,14.4785944 9.20545953,12.602439 C9.20545953,10.7262836 10.7263237,9.2054195 12.602479,9.2054195 Z M19.902699,19.902699 L5.3022591,19.902699 L5.3022591,11.3857557 L6.90465171,11.3857557 C6.82068179,11.7787493 6.77201286,12.1851109 6.77201286,12.602439 C6.77201286,15.8181907 9.387928,18.4328651 12.602439,18.4328651 C15.8181907,18.4328651 18.4328651,15.8181907 18.4328651,12.602439 C18.4328651,12.1851109 18.3841962,11.7787493 18.301467,11.3857557 L19.902699,11.3857557 L19.902699,19.902699 Z M19.902699,8.95234905 L16.252609,8.95234905 L16.252609,5.3022591 L19.902699,5.3022591 L19.902699,8.95234905 Z" id="Shape" fill="#F7F7F7" fill-rule="nonzero"></path>
                </g>
            </g>
        </g>
    </g>
</svg>