<?xml version="1.0" encoding="UTF-8"?>
<svg width="25px" height="25px" viewBox="0 0 25 25" version="1.1" xmlns="http://www.w3.org/2000/svg" xmlns:xlink="http://www.w3.org/1999/xlink">
    <!-- Generator: Sketch 49 (51002) - http://www.bohemiancoding.com/sketch -->
    <title>icon linked in</title>
    <desc>Created with Sketch.</desc>
    <defs></defs>
    <g id="HOME" stroke="none" stroke-width="1" fill="none" fill-rule="evenodd">
        <g id="Nava-Homepage" transform="translate(-540.000000, -1629.000000)">
            <g id="Footer" transform="translate(0.000000, 1590.000000)">
                <g id="icon-linked-in" transform="translate(540.000000, 39.000000)">
                    <rect id="Rectangle-5" fill="#676767" x="0" y="0" width="25" height="25" rx="4"></rect>
                    <rect id="Rectangle-path" fill="#F7F7F7" fill-rule="nonzero" x="3.07377049" y="9.42622951" width="4.09836066" height="12.5"></rect>
                    <path d="M21.0212919,10.4615916 C20.1449975,9.49818561 18.9859919,9.01639344 17.5449833,9.01639344 C17.0140528,9.01639344 16.5314289,9.0821694 16.0973331,9.2138105 C15.6633701,9.34536242 15.2968417,9.52993645 14.9975706,9.76762177 C14.6984766,10.0053071 14.4602641,10.2259576 14.2834201,10.4295732 C14.1152545,10.6229768 13.9508082,10.848265 13.7903468,11.103119 L13.7903468,9.30901842 L9.63114754,9.30901842 L9.64389944,9.92022199 C9.65244498,10.3277654 9.65665133,11.5838855 9.65665133,13.6887607 C9.65665133,15.7938143 9.64823862,18.5395481 9.63132465,21.9262295 L13.7903468,21.9262295 L13.7903468,14.8854372 C13.7903468,14.4526537 13.8364396,14.1089688 13.9293336,13.8541148 C14.1064433,13.4210191 14.3737461,13.0584264 14.7321275,12.7657122 C15.0904646,12.4726413 15.5348771,12.3262396 16.0659847,12.3262396 C16.7905404,12.3262396 17.3237733,12.5787301 17.6651522,13.0837557 C18.0063983,13.5887367 18.1770434,14.2868983 18.1770434,15.1781514 L18.1770434,21.9258282 L22.3360656,21.9258282 L22.3360656,14.6946646 C22.3357556,12.8356354 21.897852,11.4246854 21.0212919,10.4615916 Z" id="Shape" fill="#F7F7F7" fill-rule="nonzero"></path>
                    <path d="M5.23800524,3.27868852 C4.53327787,3.27868852 3.96225954,3.48226128 3.5248164,3.88901015 C3.08741788,4.29584716 2.86885246,4.80947282 2.86885246,5.43037194 C2.86885246,6.0425887 3.08112726,6.55445145 3.50572149,6.96538724 C3.93018187,7.3763671 4.49071584,7.58196721 5.1870111,7.58196721 L5.21248587,7.58196721 C5.92586841,7.58196721 6.50125894,7.37654339 6.93852362,6.96538724 C7.3757883,6.55445145 7.59015998,6.04276499 7.58172788,5.43037194 C7.57325116,4.80951689 7.35655954,4.29584716 6.93209916,3.88901015 C6.5076834,3.48208499 5.94277722,3.27868852 5.23800524,3.27868852 Z" id="Shape" fill="#F7F7F7" fill-rule="nonzero"></path>
                </g>
            </g>
        </g>
    </g>
</svg>