<?xml version="1.0" encoding="UTF-8"?>
<svg width="22px" height="22px" viewBox="0 0 22 22" version="1.1" xmlns="http://www.w3.org/2000/svg" xmlns:xlink="http://www.w3.org/1999/xlink">
    <!-- Generator: Sketch 49 (51002) - http://www.bohemiancoding.com/sketch -->
    <title>email</title>
    <desc>Created with Sketch.</desc>
    <defs></defs>
    <g id="AGENCY" stroke="none" stroke-width="1" fill="none" fill-rule="evenodd">
        <g id="IRIS" transform="translate(-419.000000, -2061.000000)" fill="#F93958">
            <g id="Key-People" transform="translate(0.000000, 1619.000000)">
                <g id="People-1-Copy-3" transform="translate(362.000000, 163.000000)">
                    <g id="Group-3-Copy-4" transform="translate(57.000000, 279.000000)">
                        <path d="M10.9998167,0 C4.92505708,0 0,4.92505708 0,10.9998167 C0,17.0746679 4.92505708,22 10.9998167,22 C17.0750346,22 22,17.0746679 22,10.9998167 C22,4.92505708 17.0750346,0 10.9998167,0 Z M11.5001831,4 L18,8 L5,8 L11.5001831,4 Z M18,13.9148392 L17.9992767,13.9148392 C17.9992767,14.5145089 17.4790452,15 16.8369382,15 L6.16270012,15 C5.5205931,15 5,14.5141714 5,13.9148392 L5,8.18557186 C5,8.12227996 5.00714256,8.06067584 5.01835366,8 L11.1526366,11.5704228 C11.1600504,11.5747266 11.1681874,11.5776803 11.1759629,11.5816466 C11.1841,11.585866 11.1922371,11.5898323 11.2003742,11.5937986 C11.243772,11.6145583 11.2882548,11.6314362 11.3341841,11.642238 C11.3387952,11.6435882 11.3434062,11.6442633 11.3482884,11.645276 C11.3981055,11.6560778 11.4490076,11.6630821 11.4994575,11.6630821 L11.5005425,11.6630821 C11.5513541,11.6630821 11.6018945,11.6564154 11.6520732,11.645276 C11.6565938,11.6442633 11.6615665,11.6435882 11.6661775,11.642238 C11.7117452,11.6314362 11.756228,11.6145583 11.7996258,11.5937986 C11.8077629,11.5898323 11.8162617,11.585866 11.8243988,11.5816466 C11.8318126,11.5776803 11.8399496,11.5747266 11.8477251,11.5704228 L17.9815559,8 C17.9928574,8.06067584 18,8.12202679 18,8.18557186 L18,13.9148392 Z" id="email"></path>
                    </g>
                </g>
            </g>
        </g>
    </g>
</svg>