<?xml version="1.0" encoding="UTF-8"?>
<svg width="35px" height="35px" viewBox="0 0 35 35" version="1.1" xmlns="http://www.w3.org/2000/svg" xmlns:xlink="http://www.w3.org/1999/xlink">
    <!-- Generator: Sketch 49 (51002) - http://www.bohemiancoding.com/sketch -->
    <title>enter@2x</title>
    <desc>Created with Sketch.</desc>
    <defs></defs>
    <g id="AGENCY" stroke="none" stroke-width="1" fill="none" fill-rule="evenodd">
        <g id="INTERFACE" transform="translate(-495.000000, -1566.000000)" fill="#58595B" fill-rule="nonzero">
            <g id="Group-8" transform="translate(0.000000, 779.000000)">
                <g id="Group-6" transform="translate(0.000000, 770.000000)">
                    <g id="More" transform="translate(0.000000, 0.000000)">
                        <g id="Group-5" transform="translate(451.000000, 17.000000)">
                            <g id="enter" transform="translate(44.000000, 0.000000)">
                                <path d="M0,17.4997425 C0.000515016407,27.1650554 7.83545962,35 17.4997425,35 C27.1650554,35 35,27.1650554 35,17.4997425 C35,7.83545962 27.1645404,0.000515016407 17.4992275,0 C7.8349446,-1.82970583e-15 0.000515016407,7.83545962 0,17.4997425 Z M28.8996307,18.7028208 C28.8826351,18.7254815 28.8661546,18.7481423 28.847099,18.769773 C28.8141379,18.8099442 28.7775718,18.8501155 28.7379155,18.8892568 C28.7374005,18.8908018 28.7353404,18.8923469 28.7343104,18.8933769 L19.9903618,27.6378405 C19.2209273,28.407275 17.9745876,28.407275 17.2051531,27.6378405 C16.4367486,26.868921 16.4367486,25.6220662 17.2051531,24.8536618 L22.5906797,19.4691652 L7.65623391,19.4691652 C6.56903427,19.4691652 5.68681117,18.5874571 5.68681117,17.4997425 C5.68681117,16.4130579 6.56903427,15.5313498 7.65623391,15.5313498 L22.5906797,15.5313498 L17.2061831,10.1463382 C16.4367486,9.37793375 16.4367486,8.13056402 17.2061831,7.3611295 C17.9745876,6.59324004 19.2209273,6.59324004 19.9893318,7.3611295 L28.7353404,16.1076531 C28.7775718,16.1493695 28.8141379,16.1900558 28.848644,16.2328021 C28.8640945,16.2497977 28.878515,16.2683383 28.8924204,16.2863638 C28.9032358,16.3002693 28.9155962,16.3162348 28.9243514,16.3311703 C29.1674392,16.6582057 29.3116438,17.0604335 29.3126738,17.4997425 C29.3116438,17.9395665 29.1669242,18.3433394 28.9238364,18.6708898 C28.9166262,18.6817051 28.9078709,18.6920055 28.8996307,18.7028208 Z" id="Shape" transform="translate(17.500000, 17.500000) rotate(-270.000000) translate(-17.500000, -17.500000) "></path>
                            </g>
                        </g>
                    </g>
                </g>
            </g>
        </g>
    </g>
</svg>